<svg width="116" height="14" viewBox="0 0 116 14" fill="none" xmlns="http://www.w3.org/2000/svg">
<path d="M7.98 8.144L9.394 9.18C8.96467 9.78667 8.40933 10.2673 7.728 10.622C7.04667 10.9673 6.29533 11.14 5.474 11.14C4.11133 11.14 2.95867 10.6593 2.016 9.698C1.08267 8.72733 0.616 7.56067 0.616 6.198C0.616 4.81667 1.08267 3.64533 2.016 2.684C2.95867 1.72267 4.11133 1.242 5.474 1.242C6.27667 1.242 7.014 1.41467 7.686 1.76C8.36733 2.096 8.92267 2.558 9.352 3.146L7.924 4.168C7.28933 3.34667 6.47267 2.936 5.474 2.936C4.606 2.936 3.878 3.25333 3.29 3.888C2.702 4.52267 2.408 5.29267 2.408 6.198C2.408 7.10333 2.702 7.87333 3.29 8.508C3.878 9.13333 4.606 9.446 5.474 9.446C5.978 9.446 6.44933 9.32933 6.888 9.096C7.32667 8.86267 7.69067 8.54533 7.98 8.144ZM13.597 3.944C12.9997 4.56 12.701 5.31133 12.701 6.198C12.701 7.08467 12.9997 7.836 13.597 8.452C14.2037 9.068 14.941 9.376 15.809 9.376C16.677 9.376 17.4097 9.068 18.007 8.452C18.6137 7.836 18.917 7.08467 18.917 6.198C18.917 5.31133 18.6137 4.56 18.007 3.944C17.4097 3.31867 16.677 3.006 15.809 3.006C14.941 3.006 14.2037 3.31867 13.597 3.944ZM10.923 6.198C10.923 4.826 11.3944 3.65933 12.337 2.698C13.2797 1.72733 14.437 1.242 15.809 1.242C17.181 1.242 18.3384 1.72733 19.281 2.698C20.233 3.65933 20.709 4.826 20.709 6.198C20.709 7.56067 20.233 8.72733 19.281 9.698C18.329 10.6593 17.1717 11.14 15.809 11.14C14.4464 11.14 13.289 10.6593 12.337 9.698C11.3944 8.72733 10.923 7.56067 10.923 6.198ZM30.2706 1.354V11H28.6326L24.9086 4.658V11H23.1306V1.354H24.7966L28.4786 7.626V1.354H30.2706ZM32.4615 2.992V1.354H39.6995V2.992H36.9835V11H35.1775V2.992H32.4615ZM47.2363 11L46.3543 8.662H42.7563L41.8743 11H39.9703L43.5823 1.354H45.5143L49.1263 11H47.2363ZM44.5483 3.412L43.3583 7.094H45.7663L44.5483 3.412ZM57.5327 8.144L58.9467 9.18C58.5174 9.78667 57.9621 10.2673 57.2807 10.622C56.5994 10.9673 55.8481 11.14 55.0267 11.14C53.6641 11.14 52.5114 10.6593 51.5687 9.698C50.6354 8.72733 50.1687 7.56067 50.1687 6.198C50.1687 4.81667 50.6354 3.64533 51.5687 2.684C52.5114 1.72267 53.6641 1.242 55.0267 1.242C55.8294 1.242 56.5667 1.41467 57.2387 1.76C57.9201 2.096 58.4754 2.558 58.9047 3.146L57.4767 4.168C56.8421 3.34667 56.0254 2.936 55.0267 2.936C54.1587 2.936 53.4307 3.25333 52.8427 3.888C52.2547 4.52267 51.9607 5.29267 51.9607 6.198C51.9607 7.10333 52.2547 7.87333 52.8427 8.508C53.4307 9.13333 54.1587 9.446 55.0267 9.446C55.5307 9.446 56.0021 9.32933 56.4407 9.096C56.8794 8.86267 57.2434 8.54533 57.5327 8.144ZM60.2518 2.992V1.354H67.4898V2.992H64.7738V11H62.9678V2.992H60.2518ZM75.6333 8.928C75.9973 9.27333 76.4313 9.446 76.9353 9.446C77.4393 9.446 77.8733 9.27333 78.2373 8.928C78.6107 8.58267 78.7973 8.13933 78.7973 7.598V1.354H80.5893V7.598C80.5893 8.64333 80.23 9.49733 79.5113 10.16C78.802 10.8133 77.9433 11.14 76.9353 11.14C75.918 11.14 75.05 10.8133 74.3313 10.16C73.622 9.49733 73.2673 8.64333 73.2673 7.598V1.354H75.0873V7.598C75.0873 8.13933 75.2693 8.58267 75.6333 8.928ZM82.9346 8.186H84.7266C84.7453 8.55933 84.904 8.88133 85.2026 9.152C85.5013 9.41333 85.898 9.544 86.3926 9.544C86.8593 9.544 87.2373 9.43667 87.5266 9.222C87.816 8.998 87.97 8.718 87.9886 8.382C88.0073 8.06467 87.9046 7.79867 87.6806 7.584C87.466 7.36933 87.1253 7.19667 86.6586 7.066L85.4686 6.758C83.8446 6.282 83.0326 5.386 83.0326 4.07C83.0326 3.23933 83.3453 2.56267 83.9706 2.04C84.6053 1.508 85.3753 1.242 86.2806 1.242C87.214 1.242 87.9793 1.508 88.5766 2.04C89.1833 2.56267 89.4866 3.26733 89.4866 4.154H87.6946C87.6946 3.77133 87.564 3.468 87.3026 3.244C87.0506 3.01067 86.7006 2.894 86.2526 2.894C85.842 2.894 85.4966 3.00133 85.2166 3.216C84.946 3.42133 84.8106 3.692 84.8106 4.028C84.8106 4.56 85.1933 4.92867 85.9586 5.134L87.1486 5.484C88.1473 5.75467 88.8473 6.15133 89.2486 6.674C89.65 7.19667 89.8273 7.78 89.7806 8.424C89.7433 9.264 89.398 9.93133 88.7446 10.426C88.1006 10.9113 87.3166 11.154 86.3926 11.154C85.3753 11.154 84.5446 10.8693 83.9006 10.3C83.2566 9.73067 82.9346 9.026 82.9346 8.186Z" fill="black"/>
<path fill-rule="evenodd" clip-rule="evenodd" d="M102 3.14286L104.463 1H110V11H104.463L102 8.85714V3.14286Z" fill="black"/>
<path d="M110 3H116V5H110V3Z" fill="black"/>
<path d="M110 7H116V9H110V7Z" fill="black"/>
<path d="M96 7V5H102V7H96Z" fill="black"/>
<path d="M104 7.5V4.5L105.333 3H108V9H105.333L104 7.5Z" fill="#F9D023"/>
</svg>
