<svg width="62" height="14" viewBox="0 0 62 14" fill="none" xmlns="http://www.w3.org/2000/svg">
<path d="M0.644 8.186H2.436C2.45467 8.55933 2.61333 8.88133 2.912 9.152C3.21067 9.41333 3.60733 9.544 4.102 9.544C4.56867 9.544 4.94667 9.43667 5.236 9.222C5.52533 8.998 5.67933 8.718 5.698 8.382C5.71667 8.06467 5.614 7.79867 5.39 7.584C5.17533 7.36933 4.83467 7.19667 4.368 7.066L3.178 6.758C1.554 6.282 0.742 5.386 0.742 4.07C0.742 3.23933 1.05467 2.56267 1.68 2.04C2.31467 1.508 3.08467 1.242 3.99 1.242C4.92333 1.242 5.68867 1.508 6.286 2.04C6.89267 2.56267 7.196 3.26733 7.196 4.154H5.404C5.404 3.77133 5.27333 3.468 5.012 3.244C4.76 3.01067 4.41 2.894 3.962 2.894C3.55133 2.894 3.206 3.00133 2.926 3.216C2.65533 3.42133 2.52 3.692 2.52 4.028C2.52 4.56 2.90267 4.92867 3.668 5.134L4.858 5.484C5.85667 5.75467 6.55667 6.15133 6.958 6.674C7.35933 7.19667 7.53667 7.78 7.49 8.424C7.45267 9.264 7.10733 9.93133 6.454 10.426C5.81 10.9113 5.026 11.154 4.102 11.154C3.08467 11.154 2.254 10.8693 1.61 10.3C0.966 9.73067 0.644 9.026 0.644 8.186ZM9.88408 11V1.354H15.8481V2.95H11.6621V5.456H15.3301V7.038H11.6621V9.404H15.9881V11H9.88408ZM25.6358 1.354V11H23.9978L20.2738 4.658V11H18.4958V1.354H20.1618L23.8438 7.626V1.354H25.6358ZM30.4308 2.992V9.362H32.4048C33.2261 9.362 33.8561 9.06333 34.2948 8.466C34.7428 7.86867 34.9668 7.11267 34.9668 6.198C34.9668 5.274 34.7428 4.50867 34.2948 3.902C33.8561 3.29533 33.2261 2.992 32.4048 2.992H30.4308ZM32.4048 11H28.6388V1.354H32.4048C33.7488 1.354 34.8081 1.81133 35.5828 2.726C36.3668 3.63133 36.7588 4.78867 36.7588 6.198C36.7588 7.598 36.3668 8.75067 35.5828 9.656C34.8081 10.552 33.7488 11 32.4048 11Z" fill="black"/>
<path fill-rule="evenodd" clip-rule="evenodd" d="M48 3.14286L50.4632 1H56V11H50.4632L48 8.85714V3.14286Z" fill="black"/>
<path d="M56 3H62V5H56V3Z" fill="black"/>
<path d="M56 7H62V9H56V7Z" fill="black"/>
<path d="M42 7V5H48V7H42Z" fill="black"/>
<path d="M50 7.5V4.5L51.3333 3H54V9H51.3333L50 7.5Z" fill="#F6D330"/>
</svg>
